<svg width="11" height="6" viewBox="0 0 11 6" fill="none" xmlns="http://www.w3.org/2000/svg">
<path fill-rule="evenodd" clip-rule="evenodd" d="M0.638296 0.292786C0.825824 0.105315 1.08013 -4.04456e-07 1.3453 -3.92865e-07C1.61046 -3.81275e-07 1.86477 0.105315 2.0523 0.292786L5.3453 3.58579L8.6383 0.292787C8.8269 0.110628 9.0795 0.00983367 9.3417 0.0121121C9.60389 0.0143905 9.85471 0.11956 10.0401 0.304968C10.2255 0.490376 10.3307 0.741189 10.333 1.00339C10.3352 1.26558 10.2345 1.51818 10.0523 1.70679L6.0523 5.70679C5.86477 5.89426 5.61046 5.99957 5.3453 5.99957C5.08013 5.99957 4.82582 5.89426 4.6383 5.70679L0.638296 1.70679C0.450825 1.51926 0.345509 1.26495 0.345509 0.999786C0.345509 0.734622 0.450825 0.480314 0.638296 0.292786Z" fill="#18181B"/>
</svg>
