<svg width="8" height="16" viewBox="0 0 8 16" fill="none" xmlns="http://www.w3.org/2000/svg">
<path d="M6.99984 3.99984V11.6665C6.99984 12.3737 6.71889 13.052 6.21879 13.5521C5.71869 14.0522 5.04041 14.3332 4.33317 14.3332C3.62593 14.3332 2.94765 14.0522 2.44755 13.5521C1.94746 13.052 1.6665 12.3737 1.6665 11.6665V3.33317C1.6665 2.89114 1.8421 2.46722 2.15466 2.15466C2.46722 1.8421 2.89114 1.6665 3.33317 1.6665C3.7752 1.6665 4.19912 1.8421 4.51168 2.15466C4.82424 2.46722 4.99984 2.89114 4.99984 3.33317V10.3332C4.99984 10.51 4.9296 10.6796 4.80457 10.8046C4.67955 10.9296 4.50998 10.9998 4.33317 10.9998C4.15636 10.9998 3.98679 10.9296 3.86177 10.8046C3.73674 10.6796 3.6665 10.51 3.6665 10.3332V3.99984H2.6665V10.3332C2.6665 10.7752 2.8421 11.1991 3.15466 11.5117C3.46722 11.8242 3.89114 11.9998 4.33317 11.9998C4.7752 11.9998 5.19912 11.8242 5.51168 11.5117C5.82424 11.1991 5.99984 10.7752 5.99984 10.3332V3.33317C5.99984 2.62593 5.71889 1.94765 5.21879 1.44755C4.71869 0.947456 4.04041 0.666504 3.33317 0.666504C2.62593 0.666504 1.94765 0.947456 1.44755 1.44755C0.947455 1.94765 0.666504 2.62593 0.666504 3.33317V11.6665C0.666504 12.639 1.05281 13.5716 1.74045 14.2592C2.42808 14.9469 3.36071 15.3332 4.33317 15.3332C5.30563 15.3332 6.23826 14.9469 6.9259 14.2592C7.61353 13.5716 7.99984 12.639 7.99984 11.6665V3.99984H6.99984Z" fill="#BA122B"/>
</svg>
