<svg width="16" height="16" viewBox="0 0 16 16" xmlns="http://www.w3.org/2000/svg">
<path d="M14.025 10.7166L11.9084 10.475C11.6595 10.4457 11.4072 10.4733 11.1705 10.5556C10.9338 10.6378 10.7188 10.7727 10.5417 10.95L9.00837 12.4833C6.64286 11.2799 4.72009 9.35714 3.5167 6.99164L5.05837 5.44997C5.4167 5.09164 5.5917 4.59164 5.53337 4.0833L5.2917 1.9833C5.24463 1.57671 5.04959 1.20166 4.74375 0.929631C4.43792 0.657606 4.04267 0.507634 3.63337 0.508303H2.1917C1.25003 0.508303 0.466701 1.29164 0.525034 2.2333C0.966701 9.34997 6.65837 15.0333 13.7667 15.475C14.7084 15.5333 15.4917 14.75 15.4917 13.8083V12.3666C15.5 11.525 14.8667 10.8166 14.025 10.7166Z"/>
</svg>
