<svg width="16" height="16" viewBox="0 0 16 16" xmlns="http://www.w3.org/2000/svg">
<path fill-rule="evenodd" clip-rule="evenodd" d="M8.00028 15.5C6.58617 15.4964 5.20226 15.0899 4.01014 14.3278L0.5 15.5L1.67009 11.9824C0.788563 10.5731 0.399581 8.91014 0.564456 7.25516C0.72933 5.60018 1.43871 4.04706 2.58089 2.84005C3.72307 1.63304 5.23322 0.840632 6.87402 0.587433C8.51483 0.334234 10.1932 0.634597 11.645 1.44132C13.0967 2.24805 14.2396 3.51532 14.894 5.04388C15.5483 6.57244 15.6769 8.27558 15.2596 9.88538C14.8423 11.4952 13.9027 12.9203 12.5886 13.9366C11.2745 14.953 9.66044 15.503 8.00028 15.5ZM9.63035 9.12407C10.1292 9.28574 10.6367 9.41955 11.1504 9.52484C11.2045 9.53281 11.2563 9.5516 11.3029 9.58012C11.3495 9.60864 11.3899 9.64627 11.4217 9.6908C11.4534 9.73532 11.4759 9.78585 11.4877 9.83927C11.4995 9.89269 11.5004 9.94795 11.4904 10.0017V10.2902C11.4954 10.3932 11.4763 10.496 11.4346 10.5902C11.393 10.6845 11.3298 10.7677 11.2504 10.8333C11.0039 11.0839 10.7121 11.2852 10.3904 11.4264C9.91582 11.4829 9.43467 11.441 8.97701 11.3031C8.51935 11.1652 8.09496 10.9343 7.73025 10.6249C7.26004 10.3089 6.82139 9.94824 6.42027 9.54789C6.02104 9.14397 5.65944 8.70429 5.34015 8.2344C5.03376 7.8688 4.80561 7.44407 4.66971 6.98653C4.53382 6.52899 4.49316 6.0484 4.5502 5.57447C4.69134 5.254 4.89147 4.96303 5.14019 4.71685C5.20356 4.63565 5.28604 4.5715 5.38031 4.53022C5.47459 4.48894 5.57772 4.47181 5.68025 4.48038H5.97018C6.07956 4.46525 6.19055 4.49418 6.27866 4.56086C6.36677 4.62753 6.42479 4.72654 6.44017 4.83609C6.59017 5.4292 6.70021 5.858 6.85022 6.3389C6.91022 6.53927 6.84029 6.58734 6.68029 6.70757C6.58028 6.78471 6.50027 6.84083 6.42027 6.89994C6.37387 6.92017 6.33224 6.94993 6.29807 6.98732C6.2639 7.02472 6.23793 7.06888 6.2219 7.11696C6.20587 7.16505 6.20005 7.21601 6.20493 7.26647C6.20981 7.31693 6.22527 7.36576 6.25022 7.40987C6.50561 7.9023 6.83249 8.35407 7.22023 8.75038C7.61525 9.13957 8.0672 9.46623 8.56036 9.71917C8.60451 9.74374 8.65316 9.7589 8.70344 9.76363C8.75371 9.76835 8.80443 9.76254 8.85237 9.74663C8.9003 9.73071 8.9445 9.70504 8.98201 9.67117C9.01952 9.6373 9.04951 9.59597 9.07027 9.54985C9.13027 9.4687 9.18034 9.39257 9.26034 9.28837C9.27281 9.25236 9.29242 9.21922 9.31796 9.19096C9.3435 9.16271 9.37449 9.13994 9.40903 9.12394C9.44357 9.10795 9.48098 9.09907 9.51902 9.09789C9.55705 9.09672 9.59489 9.10327 9.63035 9.11709V9.12407Z"/>
</svg>
